Coordinates
version=1
nRows=26
nColumns=24
inDegrees=yes

Units are S.I. units (second, meters, Newtons, ...)
Angles are in degrees.

endheader
time	pelvis_tilt	pelvis_list	pelvis_rotation	pelvis_tx	pelvis_ty	pelvis_tz	hip_flexion_r	hip_adduction_r	hip_rotation_r	knee_angle_r	ankle_angle_r	subtalar_angle_r	mtp_angle_r	hip_flexion_l	hip_adduction_l	hip_rotation_l	knee_angle_l	ankle_angle_l	subtalar_angle_l	mtp_angle_l	lumbar_extension	lumbar_bending	lumbar_rotation
      2.14000000	     -6.57734599	     -0.42501729	      2.27036132	      0.50038443	      1.22233755	     -0.87104427	      4.55862467	      4.53550560	     -6.15112803	    -42.85509219	      0.42436646	      0.78297648	     24.92782470	     30.55807977	      9.49745587	     11.76291016	    -22.09985552	     -9.27064114	     -7.44341866	      7.44991296	     -4.48322988	     -2.20009219	      1.44025608
      2.14500000	     -6.47048878	     -0.09232293	      2.41127785	      0.50660137	      1.22295257	     -0.87141695	      5.34881986	      3.81768306	     -6.71333752	    -44.70332459	     -0.96394344	      0.46928913	     24.95709905	     30.02335547	      9.94443605	     11.84345575	    -22.28823965	     -8.98391984	     -7.50645006	      7.43275819	     -4.52108500	     -2.64759977	      1.35077594
      2.15000000	     -6.38340575	      0.21313261	      2.54445761	      0.51277632	      1.22359050	     -0.87178798	      6.15273210	      3.14106545	     -7.19174989	    -46.45422523	     -2.35757190	      0.05704085	     24.50331589	     29.47467180	     10.35333402	     11.93529129	    -22.41339522	     -8.64200127	     -7.55039380	      7.42899488	     -4.53773214	     -3.05601099	      1.28306270
      2.15500000	     -6.31156286	      0.52346613	      2.67557976	      0.51888433	      1.22420238	     -0.87213639	      6.98305886	      2.46202616	     -7.62582666	    -48.14999480	     -3.50418204	     -0.51937767	     23.95894407	     28.93135675	     10.75474796	     11.98024674	    -22.50698306	     -8.28900536	     -7.56505870	      7.45845581	     -4.54776454	     -3.46700716	      1.19373063
      2.16000000	     -6.23595768	      0.78617664	      2.80499573	      0.52492631	      1.22487945	     -0.87250380	      7.79209232	      1.85196474	     -7.98931959	    -49.71832378	     -4.64397243	     -1.05680386	     22.87588141	     28.34204027	     11.09884366	     12.07613072	    -22.52443187	     -7.86033185	     -7.49392064	      7.51207821	     -4.56551578	     -3.81597586	      1.13966491
      2.16500000	     -6.18772098	      1.03607544	      2.92954613	      0.53090006	      1.22554227	     -0.87285604	      8.63597462	      1.26666330	     -8.30719338	    -51.20691818	     -5.50344553	     -1.71809887	     21.84404959	     27.77773320	     11.41871052	     12.13825878	    -22.52077852	     -7.43050295	     -7.40165670	      7.56512715	     -4.56356834	     -4.14642065	      1.06198356
      2.17000000	     -6.16953349	      1.26272829	      3.02728134	      0.53676600	      1.22617225	     -0.87316028	      9.53214716	      0.73667698	     -8.53665837	    -52.61732959	     -6.09336021	     -2.56166521	     21.01394021	     27.25781745	     11.69423342	     12.13571471	    -22.51697784	     -7.00816457	     -7.34413879	      7.62356461	     -4.54752762	     -4.44518561	      0.97164673
      2.17500000	     -6.12998669	      1.44331353	      3.14810070	      0.54256662	      1.22687438	     -0.87350996	     10.37712077	      0.26297024	     -8.77005714	    -53.89096760	     -6.61563316	     -3.26872734	     19.59085148	     26.68059642	     11.92427021	     12.21400353	    -22.45208840	     -6.48767269	     -7.09225341	      7.69074410	     -4.55826040	     -4.68567507	      0.90221236
      2.18000000	     -6.13049771	      1.59765376	      3.24373266	      0.54826681	      1.22755046	     -0.87380793	     11.28466908	     -0.15071440	     -8.92803141	    -55.07411689	     -6.87942074	     -4.13206022	     18.52709712	     26.16648291	     12.10941397	     12.23006741	    -22.39857532	     -6.00631421	     -6.89292052	      7.74660629	     -4.54233659	     -4.89524096	      0.80243548
      2.18500000	     -6.17881322	      1.71970914	      3.31298157	      0.55386344	      1.22818124	     -0.87410042	     12.26892859	     -0.50927635	     -9.02797350	    -56.16802223	     -6.96820500	     -5.06396346	     17.80235587	     25.72210847	     12.25504572	     12.22786548	    -22.35650555	     -5.55884852	     -6.76771364	      7.81036017	     -4.48768980	     -5.05865413	      0.74740222
      2.19000000	     -6.22028207	      1.81004458	      3.38701913	      0.55938080	      1.22883732	     -0.87436919	     13.23393326	     -0.80920780	     -9.10921226	    -57.13969066	     -6.94067900	     -5.96759897	     16.84585299	     25.27048812	     12.35782220	     12.22688256	    -22.30201190	     -5.05449766	     -6.50144134	      7.88793370	     -4.45183847	     -5.18486435	      0.66115811
      2.19500000	     -6.27846523	      1.87060609	      3.45260892	      0.56480518	      1.22948578	     -0.87463019	     14.22086832	     -1.06254261	     -9.16930312	    -58.00575977	     -6.75068335	     -6.79261545	     15.92763974	     24.84588998	     12.42538515	     12.23222624	    -22.24711163	     -4.55226784	     -6.21858864	      7.94265625	     -4.41145377	     -5.27337608	      0.57693963
      2.20000000	     -6.34897318	      1.91321079	      3.50863068	      0.57016832	      1.23012378	     -0.87487991	     15.22057923	     -1.27706441	     -9.20126767	    -58.76148055	     -6.41906408	     -7.54581403	     15.16982027	     24.43839552	     12.47009270	     12.22898051	    -22.18540877	     -4.08353080	     -5.95299149	      7.99302062	     -4.36954892	     -5.33272880	      0.47187377
      2.20500000	     -6.39298481	      1.91321320	      3.56258943	      0.57544374	      1.23079782	     -0.87510669	     16.17373131	     -1.41750916	     -9.22490834	    -59.38015430	     -5.98184296	     -8.21412507	     14.23985246	     24.01885459	     12.46443810	     12.23165942	    -22.14531447	     -3.54510443	     -5.58406610	      7.99673845	     -4.36875966	     -5.34322856	      0.38716534
      2.21000000	     -6.51921280	      1.91971193	      3.59272308	      0.58067256	      1.23136770	     -0.87531911	     17.24580350	     -1.55740932	     -9.20351622	    -59.93299268	     -5.44837059	     -8.79294401	     13.79484686	     23.69418511	     12.46844615	     12.22900734	    -22.09312668	     -3.13245675	     -5.41387287	      8.04403616	     -4.28639698	     -5.35418378	      0.27388482
      2.21500000	     -6.61423638	      1.88485355	      3.62035168	      0.58582539	      1.23195871	     -0.87550111	     18.26204322	     -1.62063878	     -9.17344514	    -60.34899412	     -4.85022930	     -9.27861028	     13.14105912	     23.36147464	     12.42239619	     12.21677596	    -22.08072082	     -2.61587643	     -5.10332905	      8.07675489	     -4.24730304	     -5.31975657	      0.19228379
      2.22000000	     -6.74578547	      1.86093222	      3.63629253	      0.59097318	      1.23251723	     -0.87565298	     19.31685005	     -1.68175607	     -9.11540425	    -60.66997801	     -4.17170281	     -9.62505710	     12.75337872	     23.05097184	     12.38368624	     12.20062589	    -22.02230954	     -2.23240761	     -4.90976985	      8.10832239	     -4.17932135	     -5.29023253	      0.03687759
      2.22500000	     -6.87076646	      1.81099222	      3.64769120	      0.59606432	      1.23305082	     -0.87578809	     20.35068748	     -1.69135027	     -9.04663451	    -60.87743977	     -3.44276430	     -9.84409978	     12.32628095	     22.75381475	     12.31883794	     12.18755704	    -21.99527414	     -1.78988876	     -4.67983690	      8.13473032	     -4.12216213	     -5.23001765	     -0.09643003
      2.23000000	     -6.99397820	      1.75806934	      3.64916380	      0.60110749	      1.23356758	     -0.87588871	     21.37363170	     -1.67432768	     -8.95456373	    -60.98056894	     -2.68159193	     -9.96043567	     11.98593119	     22.46098117	     12.24920217	     12.18871857	    -21.97070286	     -1.39291425	     -4.48159672	      8.15444163	     -4.07722224	     -5.16567323	     -0.24048681
      2.23500000	     -7.12150572	      1.69543415	      3.64410549	      0.60616070	      1.23405971	     -0.87597118	     22.37665416	     -1.63004806	     -8.85356469	    -60.96801179	     -1.89295880	     -9.95381882	     11.67951709	     22.16899018	     12.16640132	     12.18411395	    -21.93788191	     -0.98903491	     -4.30408027	      8.16714454	     -4.02532654	     -5.08617531	     -0.39818648
      2.24000000	     -7.24657507	      1.62547502	      3.63372591	      0.61120556	      1.23452487	     -0.87603852	     23.35473993	     -1.56016082	     -8.74344720	    -60.84675608	     -1.10165558	     -9.83483662	     11.40522876	     21.87431396	     12.07439642	     12.17502501	    -21.90139081	     -0.58427740	     -4.13491400	      8.16593091	     -3.97781617	     -4.99299613	     -0.56589470
      2.24500000	     -7.37361357	      1.55177289	      3.61930994	      0.61626221	      1.23497017	     -0.87608581	     24.30781690	     -1.46971758	     -8.62355707	    -60.61569951	     -0.30983539	     -9.62638951	     11.16505557	     21.58118096	     11.97793069	     12.17120124	    -21.86484418	     -0.18840017	     -3.97735818	      8.15505315	     -3.92312666	     -4.89486572	     -0.74182989
      2.25000000	     -7.48815744	      1.47744738	      3.59884089	      0.62130330	      1.23539626	     -0.87610395	     25.22154025	     -1.35868073	     -8.48857260	    -60.28060104	      0.46651124	     -9.35588461	     10.95658283	     21.27045486	     11.87780182	     12.17674117	    -21.81922427	      0.19327230	     -3.84435570	      8.13351309	     -3.88864336	     -4.79507380	     -0.92845525
      2.25500000	     -7.59739435	      1.40391541	      3.57432752	      0.62638186	      1.23580112	     -0.87610637	     26.09402886	     -1.23569199	     -8.34717712	    -59.83730175	      1.22147823	     -9.02381584	     10.76865811	     20.94385214	     11.77545597	     12.18211929	    -21.76048082	      0.57098312	     -3.72157885	      8.10575957	     -3.85012866	     -4.69323194	     -1.12460949
      2.26000000	     -7.69618282	      1.32847158	      3.54778141	      0.63145549	      1.23618879	     -0.87608997	     26.92205780	     -1.09318487	     -8.19307651	    -59.28783646	      1.93866546	     -8.66787549	     10.60254248	     20.60325762	     11.67079543	     12.19950408	    -21.69698233	      0.93993815	     -3.61981263	      8.07357203	     -3.82530131	     -4.58839807	     -1.32566867
      2.26500000	     -7.77883850	      1.25862208	      3.51477362	      0.63654197	      1.23654845	     -0.87606121	     27.70027432	     -0.94526617	     -8.02881104	    -58.64313593	      2.61889637	     -8.28851114	     10.44922016	     20.23701501	     11.56934253	     12.21976295	    -21.62211853	      1.30165860	     -3.53210018	      8.03577669	     -3.81447623	     -4.48284878	     -1.53026769
